<svg width="42" height="42" fill="none" xmlns="http://www.w3.org/2000/svg"><rect x="1" y="1" width="40" height="40" rx="20" fill="#fff"/><path d="M28.326 21.506c.204-.174.305-.261.343-.365a.417.417 0 0 0 0-.282c-.038-.104-.14-.19-.343-.365l-7.059-6.05c-.35-.3-.525-.45-.673-.455a.417.417 0 0 0-.334.154c-.093.115-.093.345-.093.806v3.58a8.055 8.055 0 0 0-6.667 7.93v.51a9.502 9.502 0 0 1 6.667-3.41v3.491c0 .462 0 .692.093.807.082.1.205.157.334.154.148-.004.323-.154.673-.454l7.06-6.05Z" stroke="#98A2B3" stroke-width="1.667" stroke-linecap="round" stroke-linejoin="round"/><rect x="1" y="1" width="40" height="40" rx="20" stroke="#D0D5DD" stroke-linecap="round" stroke-linejoin="round" stroke-dasharray="1 3"/></svg>