<svg width="20" height="20" fill="none" xmlns="http://www.w3.org/2000/svg"><path d="M17.875 9.25A1.875 1.875 0 1 0 16 7.375V9.25h1.875Zm-5.25 0c1.036 0 1.875-.84 1.875-1.875v-5.25a1.875 1.875 0 0 0-3.75 0v5.25c0 1.035.84 1.875 1.875 1.875Z" fill="#2EB67D"/><path d="M2.125 10.75A1.875 1.875 0 1 0 4 12.625V10.75H2.125Zm5.25 0c-1.036 0-1.875.84-1.875 1.875v5.25a1.875 1.875 0 0 0 3.75 0v-5.25c0-1.035-.84-1.875-1.875-1.875Z" fill="#E01E5A"/><path d="M10.75 17.875A1.875 1.875 0 1 0 12.625 16H10.75v1.875Zm0-5.25c0 1.036.84 1.875 1.875 1.875h5.25a1.875 1.875 0 0 0 0-3.75h-5.25c-1.035 0-1.875.84-1.875 1.875Z" fill="#ECB22E"/><path d="M9.25 2.125a1.875 1.875 0 1 0-3.75 0C5.5 3.16 6.34 4 7.375 4H9.25V2.125Zm0 5.25c0-1.036-.84-1.875-1.875-1.875h-5.25a1.875 1.875 0 0 0 0 3.75h5.25c1.035 0 1.875-.84 1.875-1.875Z" fill="#36C5F0"/></svg>