<svg width="42" height="42" fill="none" xmlns="http://www.w3.org/2000/svg"><rect x="1" y="1" width="40" height="40" rx="20" fill="#fff"/><path d="M21 21.833a.833.833 0 1 0 0-1.666.833.833 0 0 0 0 1.666ZM26.833 21.833a.833.833 0 1 0 0-1.666.833.833 0 0 0 0 1.666ZM15.167 21.833a.833.833 0 1 0 0-1.666.833.833 0 0 0 0 1.666Z" stroke="#98A2B3" stroke-width="1.667" stroke-linecap="round" stroke-linejoin="round"/><rect x="1" y="1" width="40" height="40" rx="20" stroke="#D0D5DD" stroke-linecap="round" stroke-linejoin="round" stroke-dasharray="1 3"/></svg>